<svg id="Layer_1" data-name="Layer 1" xmlns="http://www.w3.org/2000/svg" width="750" height="454.33" viewBox="0 0 750 454.33"><title>amazon-music-logo</title><path d="M482.92,578.17q6.39-4.75,6.39-13.74a13,13,0,0,0-3.88-9.75q-3.9-3.76-14.16-7.5l-21.29-8q-27.81-10.26-27.82-35,0-16.24,12.65-26.25t33.2-10a91.06,91.06,0,0,1,31.82,5.75,8.74,8.74,0,0,1,4.26,2.63,8,8,0,0,1,1.25,4.87v6.75c0,3-1.08,4.5-3.26,4.5a22.51,22.51,0,0,1-5.76-1.24,93.25,93.25,0,0,0-27.06-4q-24,0-24.05,16.25,0,6.49,4,10.24T465,521.93l19.54,7.5q14.79,5.75,21.3,13.63t6.51,20.36q0,17.76-13.28,28.25t-35.33,10.5q-21,0-37.82-7a9.87,9.87,0,0,1-4.14-2.75,8.05,8.05,0,0,1-1.13-4.76v-7c0-3,1-4.5,3-4.5a24,24,0,0,1,6.26,1.5,112.75,112.75,0,0,0,34.33,5.24q12.28,0,18.67-4.74Z" transform="translate(0 -147.83)"/><path d="M372,476.69c0-3.34,1.67-5,5-5H391.8c3.35,0,5,1.66,5,5V593.41q0,5-5,5H381a6.55,6.55,0,0,1-3.89-1,5.7,5.7,0,0,1-1.88-3.76l-1.76-8.74q-23.28,17.24-47.84,17.24-17.79,0-27.32-10t-9.51-28.24V476.69c0-3.34,1.66-5,5-5h14.78c3.33,0,5,1.66,5,5v79.24q0,13.49,5.26,19.86t16.79,6.38q18,0,36.32-12V476.69Z" transform="translate(0 -147.83)"/><path d="M237.68,598.42q-5,0-5-5v-81q0-12.49-4.76-18.5t-15-6q-18.28,0-36.83,11.25a27.55,27.55,0,0,1,.25,3.75v90.47c0,3.34-1.68,5-5,5H156.49q-5,0-5-5v-81q0-12.51-4.76-18.5t-15-6q-19.05,0-36.58,11v94.48q0,5-5,5H75.32q-5,0-5-5V476.69q0-5,5-5h11a6.49,6.49,0,0,1,3.88,1,5.67,5.67,0,0,1,1.88,3.75l1.5,8q24.06-16.51,46.86-16.5,23.29,0,31.56,17.74Q196.83,468,221.63,468q17.3,0,26.56,9.74t9.27,27.75v88c0,3.34-1.68,5-5,5H237.68Z" transform="translate(0 -147.83)"/><path d="M620.31,499.81Q611,510.43,611,533.68v3.25q0,22.74,9.39,33.36t29.69,10.63a80.65,80.65,0,0,0,22.55-3.5,17.68,17.68,0,0,1,3.76-.75c2.17,0,3.25,1.67,3.25,5v6.75a6.53,6.53,0,0,1-5,7.51q-12.28,5.24-28.56,5.24-29.57,0-45.22-16.87t-15.66-48.87q0-31.74,16.16-49.11t45.72-17.37a77.17,77.17,0,0,1,26.56,4.75,8.21,8.21,0,0,1,3.88,2.5c.75,1,1.13,2.67,1.13,5v6.76q0,5-3.26,5a17.33,17.33,0,0,1-4-.75,74,74,0,0,0-20.8-3q-21.06,0-30.32,10.63Z" transform="translate(0 -147.83)"/><path d="M554,471.69c3.34,0,5,1.66,5,5V593.41q0,5-5,5H539.24c-3.35,0-5-1.67-5-5V476.69c0-3.34,1.66-5,5-5Z" transform="translate(0 -147.83)"/><path d="M558.15,423.32a16.38,16.38,0,0,1,0,21.75c-2.76,2.75-6.55,4.12-11.4,4.12s-8.64-1.37-11.4-4.12-4.13-6.37-4.13-10.87a14.72,14.72,0,0,1,4.13-10.88q4.14-4.11,11.4-4.12t11.4,4.12Z" transform="translate(0 -147.83)"/><path d="M433.53,172.46v-17a4.19,4.19,0,0,1,4.31-4.3h76.3a4.24,4.24,0,0,1,4.4,4.28V170c0,2.45-2.08,5.63-5.74,10.7L473.27,237c14.67-.34,30.19,1.86,43.52,9.33a7.76,7.76,0,0,1,4.05,6.63v18.12c0,2.5-2.74,5.39-5.62,3.88-23.48-12.27-54.65-13.61-80.62.15-2.65,1.41-5.43-1.43-5.43-3.94V254c0-2.76.06-7.47,2.84-11.68l45.79-65.54H437.93a4.23,4.23,0,0,1-4.4-4.28Z" transform="translate(0 -147.83)"/><path d="M155.2,278.54H132a4.37,4.37,0,0,1-4.15-3.91l0-118.86a4.38,4.38,0,0,1,4.48-4.28H154a4.36,4.36,0,0,1,4.22,4V171h.44c5.63-15,16.25-22,30.55-22,14.51,0,23.62,7,30.11,22,5.64-15,18.42-22,32.07-22,9.75,0,20.37,4,26.87,13,7.37,10,5.86,24.51,5.86,37.27l0,75a4.37,4.37,0,0,1-4.47,4.27H256.38a4.35,4.35,0,0,1-4.16-4.27v-63c0-5,.44-17.51-.65-22.26-1.73-8-6.94-10.26-13.65-10.26A15.41,15.41,0,0,0,224,188.5c-2.39,6-2.17,16-2.17,22.76v63a4.37,4.37,0,0,1-4.47,4.28H194.21a4.35,4.35,0,0,1-4.16-4.27l0-63c0-13.25,2.17-32.76-14.29-32.76-16.69,0-16,19-16,32.76v63a4.38,4.38,0,0,1-4.48,4.28Z" transform="translate(0 -147.83)"/><path d="M584.23,149C550.64,149,532,177.74,532,214.76c0,36.76,18.42,66.29,52.23,66.29,32.5,0,53.08-28.77,53.08-65C637.31,178.5,618.68,149,584.23,149Zm0,107.55c-18.2,0-18-31-18-45.52s1.08-37.76,18.2-37.76c7.37,0,12.57,3.25,15.17,11.5,3,9.51,3.47,21.52,3.47,31.52C603.08,231.52,602.21,256.53,584.23,256.53Z" transform="translate(0 -147.83)"/><path d="M682,278.54H658.87a4.35,4.35,0,0,1-4.17-4.27l0-118.9a4.39,4.39,0,0,1,4.46-3.88h21.53a4.42,4.42,0,0,1,4.13,3.33V173h.44c6.49-16.26,15.59-24,31.63-24,10.4,0,20.58,3.75,27.08,14,6.07,9.5,6.07,25.51,6.07,37V274.8a4.39,4.39,0,0,1-4.45,3.74H722.28a4.36,4.36,0,0,1-4.13-3.74V210.27c0-13,1.52-32-14.51-32-5.64,0-10.84,3.76-13.44,9.51-3.25,7.25-3.69,14.5-3.69,22.52v64a4.43,4.43,0,0,1-4.52,4.27Z" transform="translate(0 -147.83)"/><path d="M414,256.76c-4.24-5.85-8.76-10.6-8.76-21.46V199.23c0-15.3,1.09-29.34-10.21-39.86-8.9-8.53-23.66-11.54-35-11.54-22.08,0-46.73,8.23-51.91,35.46-.54,2.9,1.57,4.42,3.47,4.85l22.5,2.43c2.1-.11,3.63-2.18,4-4.26,1.93-9.38,9.8-13.91,18.66-13.91,4.77,0,10.2,1.76,13,6,3.26,4.77,2.82,11.28,2.82,16.79v3c-13.47,1.51-31.06,2.51-43.65,8-14.54,6.27-24.75,19.06-24.75,37.86,0,24.06,15.2,36.09,34.74,36.09,16.51,0,25.53-3.88,38.27-16.83,4.22,6.08,5.6,9,13.31,15.43a4.79,4.79,0,0,0,5.48-.54l.06.05c4.64-4.12,13.06-11.42,17.8-15.38C415.84,261.38,415.52,258.88,414,256.76Zm-45.68-10.41c-3.69,6.51-9.55,10.53-16.06,10.53-8.91,0-14.12-6.78-14.12-16.8,0-19.73,17.73-23.31,34.53-23.31v5C372.7,230.81,372.92,238.32,368.35,246.35Z" transform="translate(0 -147.83)"/><path d="M109.73,256.76c-4.24-5.85-8.75-10.6-8.75-21.46V199.23c0-15.3,1.08-29.34-10.22-39.86-8.9-8.53-23.67-11.54-34.95-11.54-22.1,0-46.75,8.23-51.91,35.46-.55,2.9,1.56,4.42,3.46,4.85l22.5,2.43c2.1-.11,3.63-2.18,4-4.26,1.93-9.38,9.8-13.91,18.66-13.91,4.78,0,10.2,1.76,13,6,3.25,4.77,2.82,11.28,2.82,16.79v3c-13.46,1.51-31.05,2.51-43.65,8C10.2,212.51,0,225.29,0,244.09c0,24.06,15.2,36.1,34.74,36.1,16.51,0,25.53-3.89,38.28-16.84,4.21,6.09,5.59,9,13.3,15.43a4.79,4.79,0,0,0,5.48-.54l.06.06c4.63-4.12,13.06-11.42,17.8-15.39C111.55,261.38,111.21,258.88,109.73,256.76ZM64.06,246.35c-3.7,6.51-9.56,10.53-16.07,10.53-8.9,0-14.12-6.78-14.12-16.8,0-19.73,17.74-23.31,34.53-23.31v5C68.4,230.81,68.62,238.32,64.06,246.35Z" transform="translate(0 -147.83)"/><path d="M465.06,324.18c-43.58,32.08-106.75,49.14-161.16,49.14C227.66,373.32,159,345.2,107,298.4c-4.07-3.67-.43-8.7,4.47-5.85,56.06,32.54,125.38,52.14,197,52.14A392.69,392.69,0,0,0,458.72,314c7.37-3.12,13.55,4.84,6.34,10.16Z" transform="translate(0 -147.83)"/><path d="M483.19,303.52c-5.58-7.12-36.84-3.37-50.89-1.69-4.25.5-4.91-3.2-1.08-5.89,24.95-17.48,65.82-12.43,70.57-6.58s-1.26,46.78-24.64,66.29c-3.59,3-7,1.4-5.42-2.56,5.27-13.1,17-42.44,11.46-49.57Z" transform="translate(0 -147.83)"/></svg>